<?xml version="1.0" encoding="UTF-8" standalone="no"?>
<!DOCTYPE svg PUBLIC "-//W3C//DTD SVG 1.1//EN"
 "http://www.w3.org/Graphics/SVG/1.1/DTD/svg11.dtd">
<!-- Generated by graphviz version 2.40.1 (20161225.0304)
 -->
<!-- Title: dependencies Pages: 1 -->
<svg width="2295pt" height="284pt"
 viewBox="0.00 0.00 2295.00 284.00" xmlns="http://www.w3.org/2000/svg" xmlns:xlink="http://www.w3.org/1999/xlink">
<g id="graph0" class="graph" transform="scale(1 1) rotate(0) translate(4 280)">
<title>dependencies</title>
<polygon fill="#ffffff" stroke="transparent" points="-4,4 -4,-280 2291,-280 2291,4 -4,4"/>
<text text-anchor="start" x="1122.5091" y="-42.4" font-family="sans-serif" font-weight="bold" font-size="14.00" fill="#000000">Legend</text>
<polygon fill="#ffffb3" stroke="transparent" points="909.5,-10 909.5,-30 929.5,-30 929.5,-10 909.5,-10"/>
<text text-anchor="start" x="933.129" y="-15.4" font-family="sans-serif" font-size="14.00" fill="#000000"> &#160;Declarations</text>
<polygon fill="#8dd3c7" stroke="transparent" points="1022.5,-10 1022.5,-30 1042.5,-30 1042.5,-10 1022.5,-10"/>
<text text-anchor="start" x="1046.2251" y="-15.4" font-family="sans-serif" font-size="14.00" fill="#000000"> &#160;Module</text>
<polygon fill="#80b1d3" stroke="transparent" points="1108.5,-10 1108.5,-30 1128.5,-30 1128.5,-10 1108.5,-10"/>
<text text-anchor="start" x="1132.2812" y="-15.4" font-family="sans-serif" font-size="14.00" fill="#000000"> &#160;Bootstrap</text>
<polygon fill="#fdb462" stroke="transparent" points="1205.5,-10 1205.5,-30 1225.5,-30 1225.5,-10 1205.5,-10"/>
<text text-anchor="start" x="1229.1732" y="-15.4" font-family="sans-serif" font-size="14.00" fill="#000000"> &#160;Providers</text>
<polygon fill="#fb8072" stroke="transparent" points="1301.5,-10 1301.5,-30 1321.5,-30 1321.5,-10 1301.5,-10"/>
<text text-anchor="start" x="1325.2258" y="-15.4" font-family="sans-serif" font-size="14.00" fill="#000000"> &#160;Exports</text>
<g id="clust1" class="cluster">
<title>cluster_AppModule</title>
<polygon fill="none" stroke="#000000" stroke-dasharray="1,5" points="8,-70 8,-268 2279,-268 2279,-70 8,-70"/>
</g>
<g id="clust2" class="cluster">
<title>cluster_AppModule_declarations</title>
<polygon fill="none" stroke="#000000" points="2149,-78 2149,-130 2271,-130 2271,-78 2149,-78"/>
</g>
<g id="clust4" class="cluster">
<title>cluster_AppModule_imports</title>
<polygon fill="none" stroke="#000000" points="148,-78 148,-130 2141,-130 2141,-78 148,-78"/>
</g>
<g id="clust6" class="cluster">
<title>cluster_AppModule_bootstrap</title>
<polygon fill="none" stroke="#000000" points="1069,-208 1069,-260 1193,-260 1193,-208 1069,-208"/>
</g>
<g id="clust7" class="cluster">
<title>cluster_AppModule_providers</title>
<polygon fill="none" stroke="#000000" points="16,-78 16,-130 140,-130 140,-78 16,-78"/>
</g>
<!-- AppComponent -->
<g id="node1" class="node">
<title>AppComponent</title>
<polygon fill="#ffffb3" stroke="#000000" points="2262.9399,-122 2157.0601,-122 2157.0601,-86 2262.9399,-86 2262.9399,-122"/>
<text text-anchor="middle" x="2210" y="-99.8" font-family="Times,serif" font-size="14.00" fill="#000000">AppComponent</text>
</g>
<!-- AppModule -->
<g id="node2" class="node">
<title>AppModule</title>
<polygon fill="#8dd3c7" stroke="#000000" points="1172.6571,-187 1169.6571,-191 1148.6571,-191 1145.6571,-187 1089.3429,-187 1089.3429,-151 1172.6571,-151 1172.6571,-187"/>
<text text-anchor="middle" x="1131" y="-164.8" font-family="Times,serif" font-size="14.00" fill="#000000">AppModule</text>
</g>
<!-- AppComponent&#45;&gt;AppModule -->
<g id="edge1" class="edge">
<title>AppComponent&#45;&gt;AppModule</title>
<path fill="none" stroke="#000000" d="M2210,-122.3228C2210,-145.6602 2210,-183 2210,-183 2210,-183 1182.9669,-183 1182.9669,-183"/>
<polygon fill="#000000" stroke="#000000" points="1182.967,-179.5001 1172.9669,-183 1182.9669,-186.5001 1182.967,-179.5001"/>
</g>
<!-- AppComponent  -->
<g id="node19" class="node">
<title>AppComponent </title>
<polygon fill="#80b1d3" stroke="#000000" points="1185.439,-252 1076.561,-252 1076.561,-216 1185.439,-216 1185.439,-252"/>
<text text-anchor="middle" x="1131" y="-229.8" font-family="Times,serif" font-size="14.00" fill="#000000">AppComponent </text>
</g>
<!-- AppModule&#45;&gt;AppComponent  -->
<g id="edge18" class="edge">
<title>AppModule&#45;&gt;AppComponent </title>
<path fill="none" stroke="#000000" stroke-dasharray="1,5" d="M1131,-187.1061C1131,-187.1061 1131,-205.991 1131,-205.991"/>
<polygon fill="#000000" stroke="#000000" points="1127.5001,-205.9909 1131,-215.991 1134.5001,-205.991 1127.5001,-205.9909"/>
</g>
<!-- AdminModule -->
<g id="node3" class="node">
<title>AdminModule</title>
<polygon fill="#8dd3c7" stroke="#000000" points="2133.4386,-122 2130.4386,-126 2109.4386,-126 2106.4386,-122 2034.5614,-122 2034.5614,-86 2133.4386,-86 2133.4386,-122"/>
<text text-anchor="middle" x="2084" y="-99.8" font-family="Times,serif" font-size="14.00" fill="#000000">AdminModule</text>
</g>
<!-- AdminModule&#45;&gt;AppModule -->
<g id="edge2" class="edge">
<title>AdminModule&#45;&gt;AppModule</title>
<path fill="none" stroke="#000000" d="M2084,-122.1554C2084,-144.3519 2084,-179 2084,-179 2084,-179 1182.8699,-179 1182.8699,-179"/>
<polygon fill="#000000" stroke="#000000" points="1182.87,-175.5001 1172.8699,-179 1182.8699,-182.5001 1182.87,-175.5001"/>
</g>
<!-- AlertsModule -->
<g id="node4" class="node">
<title>AlertsModule</title>
<polygon fill="#8dd3c7" stroke="#000000" points="2016.7577,-122 2013.7577,-126 1992.7577,-126 1989.7577,-122 1923.2423,-122 1923.2423,-86 2016.7577,-86 2016.7577,-122"/>
<text text-anchor="middle" x="1970" y="-99.8" font-family="Times,serif" font-size="14.00" fill="#000000">AlertsModule</text>
</g>
<!-- AlertsModule&#45;&gt;AppModule -->
<g id="edge3" class="edge">
<title>AlertsModule&#45;&gt;AppModule</title>
<path fill="none" stroke="#000000" d="M1970,-122.2843C1970,-143.3211 1970,-175 1970,-175 1970,-175 1182.8932,-175 1182.8932,-175"/>
<polygon fill="#000000" stroke="#000000" points="1182.8932,-171.5001 1172.8932,-175 1182.8932,-178.5001 1182.8932,-171.5001"/>
</g>
<!-- AppConfigModule -->
<g id="node5" class="node">
<title>AppConfigModule</title>
<polygon fill="#8dd3c7" stroke="#000000" points="1905.045,-122 1902.045,-126 1881.045,-126 1878.045,-122 1782.955,-122 1782.955,-86 1905.045,-86 1905.045,-122"/>
<text text-anchor="middle" x="1844" y="-99.8" font-family="Times,serif" font-size="14.00" fill="#000000">AppConfigModule</text>
</g>
<!-- AppConfigModule&#45;&gt;AppModule -->
<g id="edge4" class="edge">
<title>AppConfigModule&#45;&gt;AppModule</title>
<path fill="none" stroke="#000000" d="M1844,-122.308C1844,-142.1455 1844,-171 1844,-171 1844,-171 1182.6773,-171 1182.6773,-171"/>
<polygon fill="#000000" stroke="#000000" points="1182.6773,-167.5001 1172.6773,-171 1182.6772,-174.5001 1182.6773,-167.5001"/>
</g>
<!-- ChildrenModule -->
<g id="node6" class="node">
<title>ChildrenModule</title>
<polygon fill="#8dd3c7" stroke="#000000" points="1764.0438,-122 1761.0438,-126 1740.0438,-126 1737.0438,-122 1655.9562,-122 1655.9562,-86 1764.0438,-86 1764.0438,-122"/>
<text text-anchor="middle" x="1710" y="-99.8" font-family="Times,serif" font-size="14.00" fill="#000000">ChildrenModule</text>
</g>
<!-- ChildrenModule&#45;&gt;AppModule -->
<g id="edge5" class="edge">
<title>ChildrenModule&#45;&gt;AppModule</title>
<path fill="none" stroke="#000000" d="M1710,-122.2222C1710,-140.8285 1710,-167 1710,-167 1710,-167 1183.1066,-167 1183.1066,-167"/>
<polygon fill="#000000" stroke="#000000" points="1183.1067,-163.5001 1173.1066,-167 1183.1066,-170.5001 1183.1067,-163.5001"/>
</g>
<!-- DashboardModule -->
<g id="node7" class="node">
<title>DashboardModule</title>
<polygon fill="#8dd3c7" stroke="#000000" points="1638.191,-122 1635.191,-126 1614.191,-126 1611.191,-122 1517.809,-122 1517.809,-86 1638.191,-86 1638.191,-122"/>
<text text-anchor="middle" x="1578" y="-99.8" font-family="Times,serif" font-size="14.00" fill="#000000">DashboardModule</text>
</g>
<!-- DashboardModule&#45;&gt;AppModule -->
<g id="edge6" class="edge">
<title>DashboardModule&#45;&gt;AppModule</title>
<path fill="none" stroke="#000000" d="M1578,-122.0225C1578,-139.3734 1578,-163 1578,-163 1578,-163 1183.0527,-163 1183.0527,-163"/>
<polygon fill="#000000" stroke="#000000" points="1183.0527,-159.5001 1173.0527,-163 1183.0526,-166.5001 1183.0527,-159.5001"/>
</g>
<!-- DatabaseModule -->
<g id="node8" class="node">
<title>DatabaseModule</title>
<polygon fill="#8dd3c7" stroke="#000000" points="1499.3501,-122 1496.3501,-126 1475.3501,-126 1472.3501,-122 1388.6499,-122 1388.6499,-86 1499.3501,-86 1499.3501,-122"/>
<text text-anchor="middle" x="1444" y="-99.8" font-family="Times,serif" font-size="14.00" fill="#000000">DatabaseModule</text>
</g>
<!-- DatabaseModule&#45;&gt;AppModule -->
<g id="edge7" class="edge">
<title>DatabaseModule&#45;&gt;AppModule</title>
<path fill="none" stroke="#000000" d="M1444,-122.0091C1444,-138.0494 1444,-159 1444,-159 1444,-159 1182.8878,-159 1182.8878,-159"/>
<polygon fill="#000000" stroke="#000000" points="1182.8878,-155.5001 1172.8878,-159 1182.8878,-162.5001 1182.8878,-155.5001"/>
</g>
<!-- DemoDataModule -->
<g id="node9" class="node">
<title>DemoDataModule</title>
<polygon fill="#8dd3c7" stroke="#000000" points="1370.1881,-122 1367.1881,-126 1346.1881,-126 1343.1881,-122 1249.8119,-122 1249.8119,-86 1370.1881,-86 1370.1881,-122"/>
<text text-anchor="middle" x="1310" y="-99.8" font-family="Times,serif" font-size="14.00" fill="#000000">DemoDataModule</text>
</g>
<!-- DemoDataModule&#45;&gt;AppModule -->
<g id="edge8" class="edge">
<title>DemoDataModule&#45;&gt;AppModule</title>
<path fill="none" stroke="#000000" d="M1310,-122.1243C1310,-136.7832 1310,-155 1310,-155 1310,-155 1182.9675,-155 1182.9675,-155"/>
<polygon fill="#000000" stroke="#000000" points="1182.9676,-151.5001 1172.9675,-155 1182.9675,-158.5001 1182.9676,-151.5001"/>
</g>
<!-- EntityModule -->
<g id="node10" class="node">
<title>EntityModule</title>
<polygon fill="#8dd3c7" stroke="#000000" points="1231.7745,-122 1228.7745,-126 1207.7745,-126 1204.7745,-122 1138.2255,-122 1138.2255,-86 1231.7745,-86 1231.7745,-122"/>
<text text-anchor="middle" x="1185" y="-99.8" font-family="Times,serif" font-size="14.00" fill="#000000">EntityModule</text>
</g>
<!-- EntityModule&#45;&gt;AppModule -->
<g id="edge9" class="edge">
<title>EntityModule&#45;&gt;AppModule</title>
<path fill="none" stroke="#000000" d="M1155.4706,-122.1061C1155.4706,-122.1061 1155.4706,-140.991 1155.4706,-140.991"/>
<polygon fill="#000000" stroke="#000000" points="1151.9706,-140.9909 1155.4706,-150.991 1158.9706,-140.991 1151.9706,-140.9909"/>
</g>
<!-- HelpModule -->
<g id="node11" class="node">
<title>HelpModule</title>
<polygon fill="#8dd3c7" stroke="#000000" points="1120.2619,-122 1117.2619,-126 1096.2619,-126 1093.2619,-122 1033.7381,-122 1033.7381,-86 1120.2619,-86 1120.2619,-122"/>
<text text-anchor="middle" x="1077" y="-99.8" font-family="Times,serif" font-size="14.00" fill="#000000">HelpModule</text>
</g>
<!-- HelpModule&#45;&gt;AppModule -->
<g id="edge10" class="edge">
<title>HelpModule&#45;&gt;AppModule</title>
<path fill="none" stroke="#000000" d="M1104.7763,-122.1061C1104.7763,-122.1061 1104.7763,-140.991 1104.7763,-140.991"/>
<polygon fill="#000000" stroke="#000000" points="1101.2764,-140.9909 1104.7763,-150.991 1108.2764,-140.991 1101.2764,-140.9909"/>
</g>
<!-- LatestChangesModule -->
<g id="node12" class="node">
<title>LatestChangesModule</title>
<polygon fill="#8dd3c7" stroke="#000000" points="1015.9678,-122 1012.9678,-126 991.9678,-126 988.9678,-122 874.0322,-122 874.0322,-86 1015.9678,-86 1015.9678,-122"/>
<text text-anchor="middle" x="945" y="-99.8" font-family="Times,serif" font-size="14.00" fill="#000000">LatestChangesModule</text>
</g>
<!-- LatestChangesModule&#45;&gt;AppModule -->
<g id="edge11" class="edge">
<title>LatestChangesModule&#45;&gt;AppModule</title>
<path fill="none" stroke="#000000" d="M945,-122.1243C945,-136.7832 945,-155 945,-155 945,-155 1079.258,-155 1079.258,-155"/>
<polygon fill="#000000" stroke="#000000" points="1079.258,-158.5001 1089.258,-155 1079.2579,-151.5001 1079.258,-158.5001"/>
</g>
<!-- NavigationModule -->
<g id="node13" class="node">
<title>NavigationModule</title>
<polygon fill="#8dd3c7" stroke="#000000" points="855.7576,-122 852.7576,-126 831.7576,-126 828.7576,-122 734.2424,-122 734.2424,-86 855.7576,-86 855.7576,-122"/>
<text text-anchor="middle" x="795" y="-99.8" font-family="Times,serif" font-size="14.00" fill="#000000">NavigationModule</text>
</g>
<!-- NavigationModule&#45;&gt;AppModule -->
<g id="edge12" class="edge">
<title>NavigationModule&#45;&gt;AppModule</title>
<path fill="none" stroke="#000000" d="M795,-122.0091C795,-138.0494 795,-159 795,-159 795,-159 1079.1247,-159 1079.1247,-159"/>
<polygon fill="#000000" stroke="#000000" points="1079.1248,-162.5001 1089.1247,-159 1079.1247,-155.5001 1079.1248,-162.5001"/>
</g>
<!-- SchoolsModule -->
<g id="node14" class="node">
<title>SchoolsModule</title>
<polygon fill="#8dd3c7" stroke="#000000" points="715.8823,-122 712.8823,-126 691.8823,-126 688.8823,-122 612.1177,-122 612.1177,-86 715.8823,-86 715.8823,-122"/>
<text text-anchor="middle" x="664" y="-99.8" font-family="Times,serif" font-size="14.00" fill="#000000">SchoolsModule</text>
</g>
<!-- SchoolsModule&#45;&gt;AppModule -->
<g id="edge13" class="edge">
<title>SchoolsModule&#45;&gt;AppModule</title>
<path fill="none" stroke="#000000" d="M664,-122.0225C664,-139.3734 664,-163 664,-163 664,-163 1079.1459,-163 1079.1459,-163"/>
<polygon fill="#000000" stroke="#000000" points="1079.1459,-166.5001 1089.1459,-163 1079.1458,-159.5001 1079.1459,-166.5001"/>
</g>
<!-- SessionModule -->
<g id="node15" class="node">
<title>SessionModule</title>
<polygon fill="#8dd3c7" stroke="#000000" points="594.3273,-122 591.3273,-126 570.3273,-126 567.3273,-122 491.6727,-122 491.6727,-86 594.3273,-86 594.3273,-122"/>
<text text-anchor="middle" x="543" y="-99.8" font-family="Times,serif" font-size="14.00" fill="#000000">SessionModule</text>
</g>
<!-- SessionModule&#45;&gt;AppModule -->
<g id="edge14" class="edge">
<title>SessionModule&#45;&gt;AppModule</title>
<path fill="none" stroke="#000000" d="M543,-122.2222C543,-140.8285 543,-167 543,-167 543,-167 1079.1839,-167 1079.1839,-167"/>
<polygon fill="#000000" stroke="#000000" points="1079.1839,-170.5001 1089.1839,-167 1079.1838,-163.5001 1079.1839,-170.5001"/>
</g>
<!-- SyncStatusModule -->
<g id="node16" class="node">
<title>SyncStatusModule</title>
<polygon fill="#8dd3c7" stroke="#000000" points="473.7702,-122 470.7702,-126 449.7702,-126 446.7702,-122 352.2298,-122 352.2298,-86 473.7702,-86 473.7702,-122"/>
<text text-anchor="middle" x="413" y="-99.8" font-family="Times,serif" font-size="14.00" fill="#000000">SyncStatusModule</text>
</g>
<!-- SyncStatusModule&#45;&gt;AppModule -->
<g id="edge15" class="edge">
<title>SyncStatusModule&#45;&gt;AppModule</title>
<path fill="none" stroke="#000000" d="M413,-122.308C413,-142.1455 413,-171 413,-171 413,-171 1079.2938,-171 1079.2938,-171"/>
<polygon fill="#000000" stroke="#000000" points="1079.2939,-174.5001 1089.2938,-171 1079.2938,-167.5001 1079.2939,-174.5001"/>
</g>
<!-- UiModule -->
<g id="node17" class="node">
<title>UiModule</title>
<polygon fill="#8dd3c7" stroke="#000000" points="333.5484,-122 330.5484,-126 309.5484,-126 306.5484,-122 260.4516,-122 260.4516,-86 333.5484,-86 333.5484,-122"/>
<text text-anchor="middle" x="297" y="-99.8" font-family="Times,serif" font-size="14.00" fill="#000000">UiModule</text>
</g>
<!-- UiModule&#45;&gt;AppModule -->
<g id="edge16" class="edge">
<title>UiModule&#45;&gt;AppModule</title>
<path fill="none" stroke="#000000" d="M297,-122.2843C297,-143.3211 297,-175 297,-175 297,-175 1079.0703,-175 1079.0703,-175"/>
<polygon fill="#000000" stroke="#000000" points="1079.0703,-178.5001 1089.0703,-175 1079.0702,-171.5001 1079.0703,-178.5001"/>
</g>
<!-- UserModule -->
<g id="node18" class="node">
<title>UserModule</title>
<polygon fill="#8dd3c7" stroke="#000000" points="241.9762,-122 238.9762,-126 217.9762,-126 214.9762,-122 156.0238,-122 156.0238,-86 241.9762,-86 241.9762,-122"/>
<text text-anchor="middle" x="199" y="-99.8" font-family="Times,serif" font-size="14.00" fill="#000000">UserModule</text>
</g>
<!-- UserModule&#45;&gt;AppModule -->
<g id="edge17" class="edge">
<title>UserModule&#45;&gt;AppModule</title>
<path fill="none" stroke="#000000" d="M199,-122.1554C199,-144.3519 199,-179 199,-179 199,-179 1079.1433,-179 1079.1433,-179"/>
<polygon fill="#000000" stroke="#000000" points="1079.1433,-182.5001 1089.1433,-179 1079.1433,-175.5001 1079.1433,-182.5001"/>
</g>
<!-- AppConfig -->
<g id="node20" class="node">
<title>AppConfig</title>
<ellipse fill="#fdb462" stroke="#000000" cx="78" cy="-104" rx="54.4778" ry="18"/>
<text text-anchor="middle" x="78" y="-99.8" font-family="Times,serif" font-size="14.00" fill="#000000">AppConfig</text>
</g>
<!-- AppConfig&#45;&gt;AppModule -->
<g id="edge19" class="edge">
<title>AppConfig&#45;&gt;AppModule</title>
<path fill="none" stroke="#000000" d="M78,-122.3228C78,-145.6602 78,-183 78,-183 78,-183 1079.0713,-183 1079.0713,-183"/>
<polygon fill="#000000" stroke="#000000" points="1079.0714,-186.5001 1089.0713,-183 1079.0713,-179.5001 1079.0714,-186.5001"/>
</g>
</g>
</svg>
